<svg xmlns="http://www.w3.org/2000/svg" viewBox="0 0 64 64" shape-rendering="crispEdges">
  <rect fill="#1a1a2e" width="64" height="64"/>
  <!-- Helmet outer -->
  <rect fill="#e5e5e5" x="12" y="6" width="40" height="36"/>
  <rect fill="#d4d4d4" x="14" y="8" width="36" height="32"/>
  <!-- Visor -->
  <rect fill="#00d9ff" x="18" y="14" width="28" height="20"/>
  <rect fill="#0891b2" x="20" y="16" width="24" height="16"/>
  <!-- Face through visor -->
  <rect fill="#fbbf24" x="24" y="20" width="4" height="4"/>
  <rect fill="#fbbf24" x="36" y="20" width="4" height="4"/>
  <rect fill="#f97316" x="28" y="28" width="8" height="2"/>
  <!-- Body -->
  <rect fill="#e5e5e5" x="18" y="42" width="28" height="18"/>
  <rect fill="#d4d4d4" x="20" y="44" width="24" height="14"/>
  <!-- Suit details -->
  <rect fill="#ff6b9d" x="26" y="46" width="12" height="4"/>
  <rect fill="#00d9ff" x="28" y="52" width="8" height="4"/>
  <!-- Arms -->
  <rect fill="#e5e5e5" x="8" y="44" width="10" height="8"/>
  <rect fill="#e5e5e5" x="46" y="44" width="10" height="8"/>
  <!-- Gloves -->
  <rect fill="#fbbf24" x="6" y="50" width="8" height="6"/>
  <rect fill="#fbbf24" x="50" y="50" width="8" height="6"/>
</svg>