<svg xmlns="http://www.w3.org/2000/svg" viewBox="0 0 64 64" shape-rendering="crispEdges">
  <rect fill="#1a1a2e" width="64" height="64"/>
  <!-- Ghost body -->
  <rect fill="#e5e5e5" x="14" y="8" width="36" height="40"/>
  <rect fill="#f5f5f5" x="16" y="10" width="32" height="36"/>
  <!-- Ghost bottom wavy -->
  <rect fill="#e5e5e5" x="14" y="48" width="8" height="8"/>
  <rect fill="#e5e5e5" x="26" y="48" width="12" height="12"/>
  <rect fill="#e5e5e5" x="42" y="48" width="8" height="8"/>
  <rect fill="#f5f5f5" x="16" y="50" width="4" height="4"/>
  <rect fill="#f5f5f5" x="28" y="50" width="8" height="8"/>
  <rect fill="#f5f5f5" x="44" y="50" width="4" height="4"/>
  <!-- Eyes -->
  <rect fill="#0a0a1a" x="20" y="20" width="10" height="12"/>
  <rect fill="#0a0a1a" x="34" y="20" width="10" height="12"/>
  <rect fill="#00d9ff" x="22" y="22" width="6" height="8"/>
  <rect fill="#00d9ff" x="36" y="22" width="6" height="8"/>
  <rect fill="#ffffff" x="24" y="24" width="2" height="2"/>
  <rect fill="#ffffff" x="38" y="24" width="2" height="2"/>
  <!-- Mouth -->
  <rect fill="#0a0a1a" x="26" y="36" width="12" height="6"/>
  <rect fill="#ff6b9d" x="28" y="38" width="8" height="2"/>
  <!-- Blush -->
  <rect fill="#ff6b9d" x="16" y="32" width="4" height="4" opacity="0.5"/>
  <rect fill="#ff6b9d" x="44" y="32" width="4" height="4" opacity="0.5"/>
</svg>