<svg xmlns="http://www.w3.org/2000/svg" viewBox="0 0 64 64" shape-rendering="crispEdges">
  <rect fill="#1a1a2e" width="64" height="64"/>
  <!-- Head wrap -->
  <rect fill="#2a2a3a" x="14" y="8" width="36" height="28"/>
  <rect fill="#1a1a2a" x="16" y="10" width="32" height="24"/>
  <!-- Eye band -->
  <rect fill="#0a0a1a" x="14" y="16" width="36" height="10"/>
  <!-- Eyes -->
  <rect fill="#ff6b9d" x="20" y="18" width="8" height="6"/>
  <rect fill="#ff6b9d" x="36" y="18" width="8" height="6"/>
  <rect fill="#ffffff" x="24" y="20" width="2" height="2"/>
  <rect fill="#ffffff" x="40" y="20" width="2" height="2"/>
  <!-- Headband tail -->
  <rect fill="#e94560" x="50" y="14" width="10" height="4"/>
  <rect fill="#e94560" x="54" y="18" width="8" height="4"/>
  <!-- Body -->
  <rect fill="#2a2a3a" x="18" y="36" width="28" height="20"/>
  <rect fill="#1a1a2a" x="20" y="38" width="24" height="16"/>
  <!-- Belt -->
  <rect fill="#e94560" x="18" y="44" width="28" height="4"/>
  <!-- Arms -->
  <rect fill="#2a2a3a" x="8" y="38" width="10" height="6"/>
  <rect fill="#2a2a3a" x="46" y="38" width="10" height="6"/>
  <!-- Legs -->
  <rect fill="#2a2a3a" x="20" y="56" width="10" height="6"/>
  <rect fill="#2a2a3a" x="34" y="56" width="10" height="6"/>
</svg>