<svg xmlns="http://www.w3.org/2000/svg" viewBox="0 0 64 64" shape-rendering="crispEdges">
  <rect fill="#1a1a2e" width="64" height="64"/>
  <!-- Ears -->
  <rect fill="#0a0a1a" x="8" y="4" width="12" height="12"/>
  <rect fill="#0a0a1a" x="44" y="4" width="12" height="12"/>
  <!-- Head -->
  <rect fill="#f5f5f5" x="10" y="12" width="44" height="36"/>
  <rect fill="#ffffff" x="12" y="14" width="40" height="32"/>
  <!-- Eye patches -->
  <rect fill="#0a0a1a" x="14" y="20" width="14" height="14"/>
  <rect fill="#0a0a1a" x="36" y="20" width="14" height="14"/>
  <!-- Eyes -->
  <rect fill="#ffffff" x="18" y="24" width="6" height="6"/>
  <rect fill="#ffffff" x="40" y="24" width="6" height="6"/>
  <rect fill="#0a0a1a" x="20" y="26" width="2" height="2"/>
  <rect fill="#0a0a1a" x="42" y="26" width="2" height="2"/>
  <!-- Nose -->
  <rect fill="#0a0a1a" x="28" y="34" width="8" height="6"/>
  <!-- Mouth -->
  <rect fill="#0a0a1a" x="30" y="40" width="4" height="4"/>
  <rect fill="#0a0a1a" x="26" y="42" width="4" height="2"/>
  <rect fill="#0a0a1a" x="34" y="42" width="4" height="2"/>
  <!-- Blush -->
  <rect fill="#ff6b9d" x="16" y="36" width="6" height="4" opacity="0.6"/>
  <rect fill="#ff6b9d" x="42" y="36" width="6" height="4" opacity="0.6"/>
  <!-- Body -->
  <rect fill="#f5f5f5" x="18" y="48" width="28" height="14"/>
  <rect fill="#ffffff" x="20" y="50" width="24" height="10"/>
</svg>