<svg xmlns="http://www.w3.org/2000/svg" viewBox="0 0 64 64" shape-rendering="crispEdges">
  <rect fill="#1a1a2e" width="64" height="64"/>
  <!-- Antenna -->
  <rect fill="#ff6b9d" x="30" y="4" width="4" height="8"/>
  <rect fill="#c77dff" x="28" y="2" width="8" height="4"/>
  <!-- Head -->
  <rect fill="#4a4a6a" x="16" y="12" width="32" height="24"/>
  <rect fill="#5a5a7a" x="18" y="14" width="28" height="20"/>
  <!-- Eyes -->
  <rect fill="#00ffff" x="22" y="18" width="8" height="8"/>
  <rect fill="#00ffff" x="34" y="18" width="8" height="8"/>
  <rect fill="#0a0a1a" x="26" y="20" width="4" height="4"/>
  <rect fill="#0a0a1a" x="38" y="20" width="4" height="4"/>
  <!-- Mouth -->
  <rect fill="#ff6b9d" x="24" y="28" width="16" height="4"/>
  <!-- Body -->
  <rect fill="#4a4a6a" x="20" y="36" width="24" height="20"/>
  <rect fill="#5a5a7a" x="22" y="38" width="20" height="16"/>
  <!-- Chest light -->
  <rect fill="#ff6b9d" x="28" y="42" width="8" height="8"/>
  <!-- Arms -->
  <rect fill="#4a4a6a" x="10" y="38" width="10" height="4"/>
  <rect fill="#4a4a6a" x="44" y="38" width="10" height="4"/>
  <!-- Legs -->
  <rect fill="#4a4a6a" x="22" y="56" width="8" height="6"/>
  <rect fill="#4a4a6a" x="34" y="56" width="8" height="6"/>
</svg>