<svg xmlns="http://www.w3.org/2000/svg" viewBox="0 0 64 64" shape-rendering="crispEdges">
  <rect fill="#1a1a2e" width="64" height="64"/>
  <!-- Hat -->
  <rect fill="#7c3aed" x="28" y="0" width="8" height="4"/>
  <rect fill="#7c3aed" x="24" y="4" width="16" height="4"/>
  <rect fill="#7c3aed" x="20" y="8" width="24" height="4"/>
  <rect fill="#7c3aed" x="16" y="12" width="32" height="4"/>
  <!-- Hat brim -->
  <rect fill="#5b21b6" x="8" y="16" width="48" height="4"/>
  <!-- Star on hat -->
  <rect fill="#fbbf24" x="30" y="6" width="4" height="4"/>
  <!-- Face -->
  <rect fill="#fbbf24" x="18" y="20" width="28" height="20"/>
  <rect fill="#f59e0b" x="20" y="22" width="24" height="16"/>
  <!-- Eyes -->
  <rect fill="#0a0a1a" x="22" y="26" width="6" height="6"/>
  <rect fill="#0a0a1a" x="36" y="26" width="6" height="6"/>
  <rect fill="#c77dff" x="24" y="28" width="2" height="2"/>
  <rect fill="#c77dff" x="38" y="28" width="2" height="2"/>
  <!-- Beard -->
  <rect fill="#e5e5e5" x="20" y="36" width="24" height="8"/>
  <rect fill="#e5e5e5" x="24" y="44" width="16" height="6"/>
  <rect fill="#e5e5e5" x="28" y="50" width="8" height="4"/>
  <!-- Robe -->
  <rect fill="#7c3aed" x="16" y="42" width="32" height="20"/>
  <rect fill="#5b21b6" x="18" y="44" width="28" height="16"/>
  <!-- Staff (side) -->
  <rect fill="#92400e" x="52" y="20" width="4" height="42"/>
  <rect fill="#c77dff" x="50" y="14" width="8" height="8"/>
</svg>